<?xml version="1.0" standalone="no"?>
<!DOCTYPE svg PUBLIC "-//W3C//DTD SVG 20010904//EN"
 "http://www.w3.org/TR/2001/REC-SVG-20010904/DTD/svg10.dtd">
<svg version="1.0" xmlns="http://www.w3.org/2000/svg"
 width="300.000000pt" height="120.000000pt" viewBox="0 0 300.000000 120.000000"
 preserveAspectRatio="xMidYMid meet">
<g transform="translate(0.000000,120.000000) scale(0.100000,-0.100000)"
fill="#000000" stroke="none">
<path d="M1614 1091 c-50 -23 -99 -81 -118 -141 -8 -25 -40 -180 -71 -344 -33
-175 -64 -315 -76 -338 -26 -50 -61 -72 -115 -71 -37 1 -87 28 -347 183 -167
100 -309 191 -316 202 -10 16 -9 24 3 43 8 12 124 89 258 170 134 81 249 154
256 163 26 33 2 82 -40 82 -18 0 -337 -187 -504 -295 -59 -38 -84 -83 -84
-148 0 -81 17 -95 355 -299 368 -222 403 -234 510 -184 60 27 106 77 129 137
9 24 41 177 71 339 60 321 74 370 112 400 51 40 71 31 384 -155 162 -97 305
-187 318 -200 22 -21 23 -27 12 -48 -7 -14 -114 -86 -263 -177 -274 -168 -292
-185 -245 -226 17 -14 34 -21 45 -17 18 7 390 231 480 289 73 48 94 84 90 155
-3 36 -11 66 -25 85 -22 30 -598 381 -662 402 -49 17 -110 14 -157 -7z m144
-25 c19 -4 64 -26 100 -47 84 -50 101 -60 132 -80 14 -9 41 -25 60 -35 19 -11
89 -52 155 -92 66 -40 129 -78 140 -85 65 -39 100 -112 77 -162 -13 -29 -71
-95 -83 -95 -13 0 -233 -133 -237 -142 -2 -5 -8 -8 -14 -8 -5 0 -33 -15 -61
-33 -29 -18 -71 -46 -95 -61 -41 -25 -62 -27 -62 -5 0 11 25 39 35 39 4 0 25
13 48 29 23 15 52 31 65 35 12 4 22 11 22 16 0 8 21 21 87 54 13 6 23 14 23
19 0 4 5 7 11 7 17 0 161 96 195 129 24 25 30 38 26 62 -5 32 -54 89 -78 89
-8 0 -14 3 -14 8 0 4 -9 12 -20 17 -20 10 -145 84 -357 212 -66 40 -138 80
-158 89 -67 28 -146 -1 -180 -66 -8 -15 -11 -30 -8 -34 4 -3 1 -6 -5 -6 -7 0
-11 -3 -10 -7 2 -9 -26 -172 -42 -238 -18 -81 -34 -170 -33 -187 1 -10 -2 -20
-8 -23 -5 -4 -9 -19 -9 -35 0 -39 -28 -158 -45 -189 -19 -35 -60 -81 -73 -81
-6 0 -12 -5 -14 -11 -2 -7 -18 -12 -36 -13 -18 0 -32 -4 -32 -8 0 -11 -89 3
-128 20 -20 10 -56 30 -79 45 -110 70 -129 81 -140 83 -6 1 -26 12 -45 25 -68
47 -87 59 -92 59 -2 0 -42 23 -88 52 -46 28 -94 57 -108 64 -79 41 -110 124
-71 187 24 40 38 50 168 126 32 19 61 39 64 44 3 5 8 8 10 6 2 -1 22 9 44 23
22 14 63 37 90 53 28 15 69 40 93 56 43 29 67 36 76 21 8 -13 -6 -27 -59 -57
-27 -16 -52 -32 -55 -35 -3 -4 -31 -22 -63 -41 -32 -19 -66 -38 -76 -44 -9 -5
-47 -29 -83 -52 -37 -24 -72 -43 -78 -43 -5 0 -10 -4 -10 -10 0 -5 -11 -12
-24 -16 -34 -8 -74 -68 -68 -100 6 -31 57 -82 109 -108 21 -11 52 -30 70 -43
17 -13 34 -23 37 -23 6 0 331 -195 369 -221 34 -24 100 -37 150 -28 42 7 91
48 112 94 15 36 45 157 50 210 1 6 4 26 8 45 3 19 9 51 12 70 3 19 10 62 16
95 6 33 13 74 16 90 2 17 9 46 14 65 6 19 13 51 16 70 3 19 9 37 13 40 4 3 10
14 14 26 8 25 67 81 98 93 24 9 69 8 116 -3z"/>
<path d="M1280 937 c-49 -17 -72 -63 -78 -156 -5 -87 -13 -108 -48 -121 -19
-8 -24 -17 -24 -45 0 -28 5 -37 24 -45 34 -13 46 -40 46 -105 0 -67 19 -109
63 -135 45 -28 55 -25 63 15 5 26 2 41 -10 54 -10 10 -16 35 -16 62 0 64 -18
117 -45 135 l-24 15 31 28 c28 25 31 34 36 107 5 83 19 114 54 114 15 0 18 8
18 45 0 43 -1 45 -27 44 -16 0 -44 -5 -63 -12z m56 -28 c3 -6 -8 -24 -25 -39
-17 -16 -31 -33 -32 -37 0 -4 -2 -17 -4 -28 -1 -11 -6 -46 -9 -78 -4 -38 -13
-64 -26 -77 -25 -25 -25 -41 1 -73 22 -28 26 -45 34 -120 3 -27 10 -57 15 -67
14 -26 12 -40 -3 -40 -28 0 -49 39 -58 109 -9 78 -17 97 -48 125 -28 25 -27
34 10 72 27 28 31 40 36 105 6 88 28 141 63 150 37 10 38 10 46 -2z"/>
<path d="M1630 852 c0 -26 6 -41 20 -50 16 -9 20 -23 20 -61 0 -57 14 -100 38
-120 13 -10 14 -15 4 -18 -24 -9 -42 -62 -42 -122 0 -64 -12 -81 -59 -81 -17
0 -21 -6 -21 -35 0 -34 1 -35 39 -35 86 0 119 33 127 127 8 89 13 103 39 113
31 12 35 56 6 65 -24 7 -38 44 -44 116 -7 74 -28 114 -68 128 -52 18 -59 15
-59 -27z m72 -16 c12 -8 20 -38 27 -96 6 -46 14 -86 18 -89 5 -3 16 -15 25
-26 17 -20 16 -22 -8 -49 -21 -22 -28 -43 -35 -104 -10 -83 -29 -112 -75 -112
-31 0 -31 14 1 28 31 14 45 48 45 109 0 29 8 58 21 80 20 32 20 35 4 60 -10
14 -21 55 -25 90 -5 37 -16 73 -25 83 -9 10 -14 24 -10 29 8 14 16 13 37 -3z"/>
</g>
</svg>
